<svg width="166" height="51" viewBox="0 0 166 51" fill="none" xmlns="http://www.w3.org/2000/svg">
<g clip-path="url(#clip0_260_1172)">
<path d="M12.3463 24.871C5.07683 24.871 0 19.7558 0 12.4424C0 5.12906 5.07683 0.0138515 12.3463 0.0138515C15.6109 -0.00688584 18.7442 1.31339 21.0059 3.67745L21.1788 3.85717C21.829 4.5415 21.8083 5.61984 21.1235 6.27652C21.1235 6.27652 21.1097 6.29035 21.1028 6.29726L19.5603 7.72814C18.8756 8.35717 17.8173 8.32261 17.1672 7.65901L17.0012 7.4862C15.7907 6.23505 14.1169 5.54381 12.3808 5.57146C8.81875 5.39864 5.78925 8.13597 5.61633 11.6959C5.6025 11.9447 5.60942 12.1936 5.61633 12.4424C5.38117 15.9954 8.07175 19.0715 11.6269 19.3065C11.8759 19.3203 12.1249 19.3272 12.3739 19.3065C14.1722 19.3134 15.8945 18.6152 17.181 17.3572L17.3539 17.1844C18.0248 16.5277 19.0969 16.5346 19.7609 17.1913L21.2618 18.6913C21.9258 19.3618 21.9258 20.4401 21.2618 21.1106L21.0889 21.2834C18.7718 23.5922 15.6178 24.8779 12.3463 24.8572" fill="white"/>
<path d="M26.6292 24.871H24.8516C23.7933 24.871 22.9357 24.0138 22.9357 22.9562V2.14978C22.9357 0.974669 23.8902 0.020752 25.066 0.020752H33.6081C38.8717 0.020752 42.413 3.4908 42.413 8.64748C42.413 13.8042 38.8717 17.2466 33.6081 17.2466H28.5382V22.9632C28.5382 24.0208 27.6805 24.8779 26.6223 24.8779M28.5382 11.7304H33.5528C35.6831 11.7304 36.8105 10.6659 36.8105 8.64748C36.8105 6.62905 35.6831 5.53688 33.5528 5.53688H28.5382V11.7304Z" fill="white"/>
<path d="M106.641 51C86.5413 51.0415 67.0848 43.9009 51.792 30.8641C50.7338 29.9793 50.6023 28.4033 51.4877 27.3526C51.5153 27.318 51.5499 27.2834 51.5776 27.2489C52.5736 26.1913 54.2267 26.1014 55.3333 27.0415C84.9228 52.1682 128.366 52.1682 157.949 27.0415C159.056 26.1014 160.709 26.1913 161.705 27.2489C162.645 28.2512 162.597 29.8341 161.594 30.7742C161.56 30.8019 161.525 30.8364 161.49 30.8641C146.198 43.9079 126.734 51.0484 106.634 51" fill="white"/>
<path d="M68.7724 24.871H68.6133C67.5343 24.871 66.5522 24.235 66.1164 23.2466L64.5533 19.7005C64.5533 19.7005 64.5325 19.6797 64.5187 19.6797H54.0953C54.0953 19.6797 54.0676 19.6867 54.0607 19.7005L52.5943 22.977C52.0756 24.1314 50.9274 24.871 49.6686 24.871C48.3544 24.871 47.2893 23.7996 47.2962 22.4862C47.2962 22.1544 47.3653 21.8295 47.5037 21.5254L56.3086 1.91476C56.8273 0.767296 57.9686 0.020752 59.2343 0.020752H60.424C61.0603 0.020752 61.6413 0.394024 61.9042 0.981581L71.0618 21.3664C71.6221 22.6244 71.0618 24.0968 69.803 24.6636C69.4848 24.8088 69.139 24.8779 68.7932 24.8848M56.3847 14.5231H62.2569L59.3173 7.91476L56.3778 14.5231H56.3847Z" fill="white"/>
<path d="M163.51 24.871H163.351C162.272 24.871 161.29 24.235 160.854 23.2466L159.291 19.7005C159.291 19.7005 159.27 19.6797 159.256 19.6797H148.826C148.826 19.6797 148.798 19.6867 148.791 19.7005L147.325 22.977C146.806 24.1314 145.658 24.871 144.399 24.871C143.085 24.871 142.02 23.7996 142.027 22.4862C142.027 22.1544 142.096 21.8295 142.234 21.5254L151.039 1.91476C151.558 0.760383 152.706 0.020752 153.965 0.020752H155.155C155.791 0.020752 156.372 0.394024 156.635 0.981581L165.786 21.3664C166.346 22.6244 165.786 24.0968 164.527 24.6636C164.209 24.8088 163.863 24.8779 163.517 24.8848M151.108 14.5231H156.981L154.041 7.90785L151.108 14.5231Z" fill="white"/>
<path d="M139.668 24.871H136.666C135.719 24.871 134.813 24.477 134.169 23.7788L134.135 23.7373L128.774 16.8664H125.482V23.4124C125.482 24.2212 124.825 24.871 124.023 24.871H121.685C120.876 24.871 120.225 24.2143 120.225 23.4124V2.07373C120.225 0.940092 121.145 0.0138245 122.287 0.0138245H131.375C136.653 0.0138245 140.201 3.40092 140.201 8.43318C140.332 11.8272 138.306 14.924 135.145 16.1751L140.595 22.9424C141.003 23.447 140.927 24.1935 140.422 24.6014C140.208 24.7742 139.945 24.8641 139.675 24.8641M125.496 11.6544H131.417C133.692 11.6544 134.951 10.5069 134.951 8.43318C134.951 6.35945 133.699 5.21198 131.417 5.21198H125.496V11.6613V11.6544Z" fill="white"/>
<path d="M109.851 24.871H107.637C106.793 24.871 106.116 24.1867 106.116 23.3502V5.212H99.4755C98.9291 5.212 98.4865 4.7696 98.4865 4.22352C98.4865 4.02306 98.5487 3.8226 98.6663 3.6567L100.416 1.16131C100.921 0.442411 101.751 0.00692749 102.63 0.00692749H118.192C118.669 0.00692749 119.05 0.394024 119.05 0.86407V1.7143C119.05 3.64287 117.487 5.19817 115.557 5.20508H111.372V23.3364C111.372 24.1797 110.687 24.8572 109.851 24.8572" fill="white"/>
<path d="M75.0044 24.871C73.5795 24.871 72.4314 23.7166 72.4314 22.2926C72.4314 21.6083 72.7011 20.9585 73.1853 20.4747L81.2225 12.4424L73.1853 4.41014C72.1685 3.41475 72.1616 1.78341 73.1576 0.767285C74.1536 -0.248844 75.786 -0.255756 76.8027 0.739636C76.8096 0.746548 76.8235 0.760373 76.8304 0.767285L86.6935 10.6244C87.6965 11.6267 87.6965 13.2581 86.6935 14.2673L76.8304 24.1175C76.3462 24.6014 75.6891 24.871 75.0113 24.871" fill="white"/>
<path d="M91.4798 9.47005L96.5704 4.38249C97.5734 3.38018 97.5734 1.74885 96.5704 0.746544C96.5566 0.732719 96.5497 0.725807 96.5359 0.711982C95.4915 -0.25576 93.866 -0.214286 92.87 0.801843L86.7488 6.91936L89.301 9.47005C89.9028 10.0714 90.878 10.0714 91.4798 9.47005Z" fill="white"/>
<path d="M91.4937 15.3871C90.8919 14.7857 89.9167 14.7857 89.3149 15.3871L86.7627 17.9378L92.9393 24.1106C93.9422 25.1129 95.5745 25.1129 96.5844 24.1106C96.6259 24.0691 96.6674 24.0207 96.7089 23.9724C97.5873 22.9217 97.5112 21.3664 96.529 20.4124L91.5006 15.3871H91.4937Z" fill="white"/>
</g>
<defs>
<clipPath id="clip0_260_1172">
<rect width="166" height="51" fill="white"/>
</clipPath>
</defs>
</svg>
