<svg width="144" height="182" viewBox="0 0 144 182" fill="none" xmlns="http://www.w3.org/2000/svg">
<path d="M64.6132 51.0744L59.2359 38.7627C57.6227 34.8381 55.4716 32.2575 51.1699 32.2575M51.1699 32.2575H32.3491C23.1537 32.2575 18.9057 34.9456 18.9057 45.698C19.3564 55.3419 23.1602 64.5259 29.6603 71.6654M51.1699 32.2575C51.1699 23.9243 52.4604 10.7525 40.4151 10.7525C29.6603 10.7525 26.9717 22.4189 26.9717 32.2575M86.1226 72.5793L98.4368 77.9555C102.362 79.5684 104.943 81.719 104.943 86.0199M104.943 86.0199V104.837C104.943 114.03 102.255 118.277 91.5 118.277C81.8542 117.827 72.6682 114.024 65.5273 107.525M104.943 86.0199C113.278 86.0199 126.453 84.7296 126.453 96.7724C126.453 107.525 114.784 110.213 104.943 110.213M32.8867 70.4825L64.0217 53.2248C74.1849 47.5797 89.7792 62.7945 83.9717 73.1707L66.6567 104.407C55.4717 124.514 12.399 81.8802 32.8867 70.4825Z" stroke="white" stroke-width="4" stroke-linecap="round" stroke-linejoin="round"/>
<mask id="mask0_228_626" style="mask-type:luminance" maskUnits="userSpaceOnUse" x="80" y="123" width="64" height="20">
<path d="M144 123.597H80.1509V142.612H144V123.597Z" fill="white"/>
</mask>
<g mask="url(#mask0_228_626)">
<path d="M84.8997 132.87C82.1036 132.87 80.1509 130.963 80.1509 128.236C80.1509 125.509 82.1036 123.602 84.8997 123.602C86.1555 123.594 87.3606 124.087 88.2306 124.968L88.297 125.035C88.5471 125.29 88.5391 125.692 88.2757 125.937C88.2757 125.937 88.2704 125.942 88.2678 125.945L87.6745 126.478C87.4111 126.713 87.0041 126.7 86.754 126.453L86.6902 126.388C86.2246 125.922 85.5808 125.664 84.913 125.674C83.543 125.61 82.3776 126.63 82.3112 127.958C82.3058 128.05 82.3085 128.143 82.3112 128.236C82.2207 129.561 83.2556 130.708 84.6231 130.795C84.7189 130.8 84.8146 130.803 84.9104 130.795C85.602 130.798 86.2644 130.538 86.7593 130.068L86.8259 130.004C87.0839 129.759 87.4963 129.762 87.7517 130.007L88.3289 130.566C88.5843 130.816 88.5843 131.218 88.3289 131.468L88.2625 131.532C87.3712 132.393 86.1581 132.872 84.8997 132.865" fill="white"/>
<path d="M90.3934 132.87H89.7097C89.3027 132.87 88.9727 132.55 88.9727 132.156V124.398C88.9727 123.96 89.3399 123.605 89.7921 123.605H93.0777C95.1022 123.605 96.4644 124.899 96.4644 126.821C96.4644 128.744 95.1022 130.027 93.0777 130.027H91.1277V132.159C91.1277 132.553 90.7978 132.872 90.3907 132.872M91.1277 127.971H93.0565C93.8758 127.971 94.3095 127.574 94.3095 126.821C94.3095 126.069 93.8758 125.661 93.0565 125.661H91.1277V127.971Z" fill="white"/>
<path d="M121.169 142.612C113.438 142.627 105.954 139.965 100.072 135.104C99.6649 134.775 99.6143 134.187 99.9547 133.795C99.9655 133.782 99.9788 133.769 99.9894 133.757C100.372 133.362 101.008 133.329 101.434 133.679C112.815 143.048 129.525 143.048 140.904 133.679C141.329 133.329 141.965 133.362 142.348 133.757C142.709 134.13 142.692 134.72 142.306 135.071C142.292 135.081 142.279 135.094 142.265 135.104C136.383 139.968 128.897 142.63 121.166 142.612" fill="white"/>
<path d="M106.603 132.87H106.542C106.127 132.87 105.749 132.633 105.581 132.264L104.98 130.942C104.98 130.942 104.972 130.934 104.967 130.934H100.958C100.958 130.934 100.947 130.937 100.944 130.942L100.38 132.164C100.181 132.594 99.7393 132.87 99.2551 132.87C98.7496 132.87 98.3399 132.47 98.3426 131.981C98.3426 131.857 98.3692 131.736 98.4224 131.623L101.809 124.311C102.009 123.883 102.448 123.605 102.934 123.605H103.392C103.637 123.605 103.86 123.744 103.961 123.963L107.484 131.563C107.699 132.032 107.484 132.581 106.999 132.793C106.877 132.847 106.744 132.872 106.611 132.875M101.838 129.012H104.097L102.966 126.548L101.836 129.012H101.838Z" fill="white"/>
<path d="M143.042 132.87H142.981C142.565 132.87 142.188 132.633 142.021 132.264L141.419 130.942C141.419 130.942 141.412 130.934 141.407 130.934H137.394C137.394 130.934 137.384 130.937 137.381 130.942L136.816 132.164C136.618 132.594 136.176 132.87 135.692 132.87C135.186 132.87 134.777 132.47 134.779 131.981C134.779 131.857 134.806 131.736 134.859 131.623L138.245 124.311C138.445 123.88 138.887 123.605 139.37 123.605H139.828C140.073 123.605 140.297 123.744 140.397 123.963L143.917 131.563C144.133 132.032 143.917 132.581 143.434 132.793C143.311 132.847 143.178 132.872 143.045 132.875M138.273 129.012H140.53L139.4 126.545L138.273 129.012Z" fill="white"/>
<path d="M133.872 132.87H132.717C132.353 132.87 132.004 132.723 131.757 132.463L131.744 132.447L129.682 129.886H128.416V132.326C128.416 132.628 128.163 132.87 127.854 132.87H126.955C126.644 132.87 126.394 132.625 126.394 132.326V124.37C126.394 123.948 126.747 123.602 127.186 123.602H130.682C132.712 123.602 134.077 124.865 134.077 126.741C134.127 128.007 133.348 129.161 132.132 129.628L134.228 132.151C134.385 132.339 134.356 132.617 134.162 132.769C134.079 132.834 133.978 132.867 133.875 132.867M128.421 127.942H130.698C131.573 127.942 132.058 127.514 132.058 126.741C132.058 125.968 131.576 125.54 130.698 125.54H128.421V127.945V127.942Z" fill="white"/>
<path d="M122.403 132.87H121.552C121.227 132.87 120.966 132.615 120.966 132.303V125.54H118.412C118.202 125.54 118.032 125.375 118.032 125.172C118.032 125.097 118.056 125.022 118.101 124.96L118.774 124.03C118.968 123.762 119.288 123.6 119.626 123.6H125.611C125.795 123.6 125.941 123.744 125.941 123.919V124.236C125.941 124.955 125.34 125.535 124.598 125.538H122.988V132.298C122.988 132.612 122.725 132.865 122.403 132.865" fill="white"/>
<path d="M109 132.87C108.452 132.87 108.01 132.439 108.01 131.909C108.01 131.653 108.114 131.411 108.3 131.231L111.392 128.236L108.3 125.241C107.909 124.87 107.907 124.262 108.29 123.883C108.673 123.504 109.301 123.502 109.692 123.873C109.694 123.875 109.7 123.88 109.702 123.883L113.496 127.558C113.882 127.932 113.882 128.54 113.496 128.916L109.702 132.589C109.516 132.769 109.263 132.87 109.003 132.87" fill="white"/>
<path d="M115.337 127.128L117.295 125.231C117.681 124.857 117.681 124.249 117.295 123.875C117.29 123.87 117.287 123.868 117.282 123.863C116.88 123.502 116.255 123.517 115.872 123.896L113.517 126.177L114.499 127.128C114.73 127.352 115.106 127.352 115.337 127.128Z" fill="white"/>
<path d="M115.342 129.334C115.111 129.11 114.736 129.11 114.504 129.334L113.523 130.285L115.898 132.586C116.284 132.96 116.912 132.96 117.3 132.586C117.316 132.571 117.332 132.553 117.348 132.535C117.686 132.143 117.657 131.563 117.279 131.208L115.345 129.334H115.342Z" fill="white"/>
</g>
<path d="M12.7807 167.06L7.17282 148.805H7.0424C7.06414 149.24 7.09674 149.892 7.14021 150.761C7.18368 151.63 7.22716 152.565 7.27063 153.565C7.3141 154.542 7.33584 155.433 7.33584 156.237V167.06H2.93433V143.785H9.6507L15.1607 161.583H15.2586L21.0946 143.785H27.811V167.06H23.2139V156.042C23.2139 155.303 23.2247 154.456 23.2465 153.499C23.2899 152.543 23.3226 151.641 23.3443 150.794C23.3878 149.925 23.4204 149.273 23.4421 148.838H23.3117L17.3126 167.06H12.7807ZM40.6034 148.903C42.9943 148.903 44.8201 149.425 46.0808 150.468C47.3632 151.489 48.0044 153.065 48.0044 155.194V167.06H44.6136L43.6681 164.648H43.5377C43.0378 165.278 42.5161 165.799 41.9727 166.212C41.4511 166.625 40.8425 166.918 40.1469 167.092C39.4731 167.288 38.6363 167.386 37.6364 167.386C36.5931 167.386 35.6476 167.19 34.7999 166.799C33.9739 166.386 33.3219 165.767 32.8437 164.941C32.3655 164.093 32.1264 163.029 32.1264 161.746C32.1264 159.856 32.7893 158.465 34.1152 157.574C35.4411 156.661 37.4299 156.161 40.0817 156.075L43.1791 155.977V155.194C43.1791 154.26 42.9291 153.575 42.4292 153.141C41.951 152.706 41.2772 152.489 40.4077 152.489C39.5383 152.489 38.6906 152.619 37.8647 152.88C37.0387 153.119 36.2127 153.423 35.3868 153.793L33.7892 150.5C34.7456 150.001 35.7997 149.609 36.9517 149.327C38.1255 149.044 39.3427 148.903 40.6034 148.903ZM41.288 158.878C39.7231 158.921 38.6363 159.204 38.0277 159.725C37.4191 160.247 37.1148 160.931 37.1148 161.779C37.1148 162.518 37.3321 163.05 37.7668 163.376C38.2016 163.68 38.7667 163.833 39.4622 163.833C40.5056 163.833 41.3859 163.528 42.1031 162.92C42.8204 162.29 43.1791 161.41 43.1791 160.28V158.813L41.288 158.878ZM57.835 149.262V167.06H52.977V149.262H57.835ZM55.4223 142.286C56.1396 142.286 56.7591 142.46 57.2807 142.808C57.8024 143.133 58.0632 143.753 58.0632 144.666C58.0632 145.557 57.8024 146.176 57.2807 146.524C56.7591 146.871 56.1396 147.045 55.4223 147.045C54.6833 147.045 54.053 146.871 53.5313 146.524C53.0314 146.176 52.7814 145.557 52.7814 144.666C52.7814 143.753 53.0314 143.133 53.5313 142.808C54.053 142.46 54.6833 142.286 55.4223 142.286ZM70.5403 143.785C73.6485 143.785 75.996 144.22 77.5827 145.089C79.1694 145.959 79.9628 147.491 79.9628 149.685C79.9628 150.555 79.8215 151.348 79.5389 152.065C79.2564 152.782 78.8434 153.369 78.3 153.825C77.7783 154.282 77.1371 154.575 76.3764 154.705V154.868C77.1589 155.021 77.8653 155.292 78.4956 155.683C79.126 156.074 79.6259 156.64 79.9954 157.378C80.3649 158.117 80.5496 159.095 80.5496 160.312C80.5496 161.725 80.2019 162.942 79.5063 163.963C78.8325 164.963 77.8544 165.734 76.572 166.277C75.2896 166.799 73.7681 167.06 72.0075 167.06H63.3023V143.785H70.5403ZM71.0946 153.01C72.5291 153.01 73.5181 152.782 74.0615 152.326C74.6266 151.869 74.9092 151.207 74.9092 150.337C74.9092 149.446 74.5832 148.805 73.9311 148.414C73.279 148.023 72.2466 147.827 70.8337 147.827H68.2254V153.01H71.0946ZM68.2254 156.922V162.985H71.4532C72.9312 162.985 73.9637 162.703 74.5506 162.138C75.1374 161.551 75.4309 160.779 75.4309 159.823C75.4309 159.236 75.3004 158.726 75.0396 158.291C74.8005 157.856 74.3767 157.52 73.7681 157.281C73.1595 157.042 72.3335 156.922 71.2902 156.922H68.2254ZM100.988 158.128C100.988 159.606 100.782 160.921 100.369 162.072C99.9774 163.224 99.4014 164.202 98.6407 165.006C97.9016 165.788 96.9996 166.386 95.9345 166.799C94.8695 167.19 93.6632 167.386 92.3155 167.386C91.0766 167.386 89.9246 167.19 88.8595 166.799C87.8162 166.386 86.9142 165.788 86.1534 165.006C85.3927 164.202 84.7949 163.224 84.3602 162.072C83.9472 160.921 83.7407 159.606 83.7407 158.128C83.7407 156.151 84.0885 154.488 84.7841 153.141C85.4796 151.772 86.4795 150.729 87.7836 150.011C89.0878 149.294 90.631 148.936 92.4133 148.936C94.087 148.936 95.565 149.294 96.8475 150.011C98.1299 150.729 99.1406 151.772 99.8796 153.141C100.619 154.488 100.988 156.151 100.988 158.128ZM88.6965 158.128C88.6965 159.302 88.8161 160.29 89.0552 161.094C89.316 161.877 89.7181 162.474 90.2615 162.887C90.8049 163.278 91.5113 163.474 92.3807 163.474C93.2502 163.474 93.9457 163.278 94.4674 162.887C95.0108 162.474 95.402 161.877 95.6411 161.094C95.9019 160.29 96.0324 159.302 96.0324 158.128C96.0324 156.955 95.9019 155.977 95.6411 155.194C95.402 154.412 95.0108 153.825 94.4674 153.434C93.924 153.043 93.2176 152.847 92.3481 152.847C91.0657 152.847 90.1311 153.293 89.5442 154.184C88.9791 155.053 88.6965 156.368 88.6965 158.128ZM121.174 158.128C121.174 159.606 120.968 160.921 120.555 162.072C120.164 163.224 119.588 164.202 118.827 165.006C118.088 165.788 117.186 166.386 116.121 166.799C115.056 167.19 113.85 167.386 112.502 167.386C111.263 167.386 110.111 167.19 109.046 166.799C108.003 166.386 107.101 165.788 106.34 165.006C105.579 164.202 104.981 163.224 104.547 162.072C104.134 160.921 103.927 159.606 103.927 158.128C103.927 156.151 104.275 154.488 104.97 153.141C105.666 151.772 106.666 150.729 107.97 150.011C109.274 149.294 110.817 148.936 112.6 148.936C114.273 148.936 115.751 149.294 117.034 150.011C118.316 150.729 119.327 151.772 120.066 153.141C120.805 154.488 121.174 156.151 121.174 158.128ZM108.883 158.128C108.883 159.302 109.002 160.29 109.242 161.094C109.502 161.877 109.904 162.474 110.448 162.887C110.991 163.278 111.698 163.474 112.567 163.474C113.437 163.474 114.132 163.278 114.654 162.887C115.197 162.474 115.588 161.877 115.827 161.094C116.088 160.29 116.219 159.302 116.219 158.128C116.219 156.955 116.088 155.977 115.827 155.194C115.588 154.412 115.197 153.825 114.654 153.434C114.11 153.043 113.404 152.847 112.534 152.847C111.252 152.847 110.317 153.293 109.731 154.184C109.165 155.053 108.883 156.368 108.883 158.128ZM130.83 167.386C128.852 167.386 127.233 166.614 125.972 165.071C124.733 163.507 124.113 161.214 124.113 158.193C124.113 155.151 124.744 152.847 126.004 151.283C127.265 149.718 128.917 148.936 130.96 148.936C131.808 148.936 132.558 149.055 133.21 149.294C133.862 149.512 134.416 149.816 134.873 150.207C135.351 150.598 135.753 151.044 136.079 151.544H136.242C136.176 151.196 136.1 150.696 136.013 150.044C135.926 149.37 135.883 148.686 135.883 147.99V142.286H140.741V167.06H137.024L136.079 164.745H135.883C135.579 165.223 135.188 165.669 134.71 166.082C134.253 166.473 133.71 166.788 133.079 167.027C132.449 167.266 131.699 167.386 130.83 167.386ZM132.525 163.507C133.873 163.507 134.818 163.115 135.362 162.333C135.905 161.529 136.187 160.334 136.209 158.747V158.226C136.209 156.487 135.937 155.162 135.394 154.249C134.873 153.336 133.895 152.88 132.46 152.88C131.395 152.88 130.558 153.347 129.95 154.282C129.341 155.194 129.037 156.52 129.037 158.258C129.037 159.997 129.341 161.312 129.95 162.203C130.558 163.072 131.417 163.507 132.525 163.507Z" fill="white"/>
</svg>
